<svg width="37" height="39" viewBox="0 0 37 39" fill="none" xmlns="http://www.w3.org/2000/svg">
<path d="M18.6483 10.0316V20.2184L23.6087 25.1788M8.85867 31.8389L3.75898 37.7595M33.7139 37.7595L28.6142 31.8389M33.9815 20.2185C33.9815 28.629 27.1633 35.4471 18.7528 35.4471C10.3422 35.4471 3.52409 28.629 3.52409 20.2185C3.52409 11.8079 10.3422 4.98977 18.7528 4.98977C27.1633 4.98977 33.9815 11.8079 33.9815 20.2185ZM11.0517 3.50998C10.0907 2.57643 8.78008 2 7.33456 2C4.3887 2 2 4.3887 2 7.33456C2 8.55039 2.4075 9.66991 3.0921 10.5672C4.98587 7.50052 7.7554 5.03181 11.0517 3.50998ZM26.6796 3.51023C27.6406 2.57668 28.9513 2.00025 30.3968 2.00025C33.3426 2.00025 35.7313 4.38895 35.7313 7.33481C35.7313 8.55065 35.3238 9.67016 34.6392 10.5674C32.7455 7.50078 29.9759 5.03206 26.6796 3.51023Z" stroke="#FFB342" stroke-width="2.5" stroke-miterlimit="10"/>
</svg>
