<svg width="46" height="50" viewBox="0 0 46 50" fill="none" xmlns="http://www.w3.org/2000/svg">
<path d="M45.1421 49.1371H11.1393C10.6741 49.1371 10.2954 48.7616 10.2954 48.3003V38.93H11.7522V47.6917H44.5283V21.9843H45.9852V48.3013C45.9861 48.7616 45.6074 49.1371 45.1421 49.1371Z" fill="#FFB342"/>
<path d="M44.5293 22.0921V9.02417H42.4529C39.5723 9.02417 37.2288 6.70061 37.2288 3.84455V1.48151H11.7531V19.6848H10.2963V0.873899C10.2963 0.412653 10.6751 0.0371094 11.1403 0.0371094H37.6707C38.2311 0.0371094 38.6875 0.489688 38.6875 1.0453V3.84551C38.6875 5.90523 40.3774 7.58073 42.4548 7.58073H44.9712C45.5316 7.58073 45.988 8.03331 45.988 8.58892V22.0921H44.5293Z" fill="#FFB342"/>
<path d="M39.6102 39.7283H1.84202C1.37682 39.7283 0.998047 39.3527 0.998047 38.8915V19.4633C0.998047 19.0021 1.37682 18.6265 1.84202 18.6265H39.6102C40.0754 18.6265 40.4541 19.0021 40.4541 19.4633V38.8915C40.4532 39.3527 40.0754 39.7283 39.6102 39.7283ZM2.45485 38.2839H38.9964V20.0709H2.45485V38.2839Z" fill="#FFB342"/>
<path d="M32.3485 10.0526H16.4421C16.04 10.0526 15.7137 9.72904 15.7137 9.33038C15.7137 8.93173 16.04 8.60818 16.4421 8.60818H32.3485C32.7505 8.60818 33.0769 8.93173 33.0769 9.33038C33.0769 9.72904 32.7505 10.0526 32.3485 10.0526Z" fill="#FFB342"/>
<path d="M38.9177 14.1672H16.4421C16.04 14.1672 15.7137 13.8437 15.7137 13.445C15.7137 13.0463 16.04 12.7228 16.4421 12.7228H38.9187C39.3207 12.7228 39.6471 13.0463 39.6471 13.445C39.6471 13.8437 39.3207 14.1672 38.9177 14.1672Z" fill="#FFB342"/>
<path d="M45.2577 9.02417C45.0664 9.02417 44.8751 8.95002 44.7323 8.80173L37.4318 1.25907C37.153 0.971156 37.1627 0.513762 37.4531 0.238363C37.7435 -0.0379988 38.2048 -0.0283695 38.4826 0.259548L45.7831 7.80221C46.0619 8.09013 46.0522 8.54752 45.7618 8.82292C45.6209 8.95773 45.4393 9.02417 45.2577 9.02417Z" fill="#FFB342"/>
<path d="M10.4456 11.3843L1.26283 18.9075L2.19082 20.021L11.3736 12.4978L10.4456 11.3843Z" fill="#FFB342"/>
<path d="M12.9166 24.9684C13.6567 25.3459 14.2278 25.8842 14.6318 26.5833C15.0348 27.2814 15.2368 28.0922 15.2368 29.0147C15.2368 29.9372 15.0348 30.7431 14.6318 31.4336C14.2287 32.124 13.6567 32.6575 12.9166 33.0349C12.1766 33.4124 11.319 33.6021 10.3439 33.6021H7.10011V24.4022H10.3439C11.319 24.4013 12.1766 24.591 12.9166 24.9684ZM12.5379 31.2419C13.0701 30.7152 13.3352 29.9728 13.3352 29.0147C13.3352 28.0566 13.0691 27.3074 12.5379 26.7672C12.0057 26.227 11.253 25.9564 10.2779 25.9564H8.96191V32.0325H10.2779C11.252 32.0335 12.0057 31.7696 12.5379 31.2419Z" fill="#FFB342"/>
<path d="M17.9883 33.2525C17.4211 32.9406 16.9753 32.4995 16.6519 31.9275C16.3285 31.3565 16.1663 30.6979 16.1663 29.9506C16.1663 29.2044 16.3324 28.5448 16.6645 27.9737C16.9967 27.4027 17.4512 26.9607 18.0271 26.6487C18.603 26.3368 19.246 26.1808 19.955 26.1808C20.6639 26.1808 21.3059 26.3368 21.8828 26.6487C22.4587 26.9607 22.9132 27.4027 23.2454 27.9737C23.5775 28.5448 23.7436 29.2044 23.7436 29.9506C23.7436 30.6979 23.5727 31.3565 23.2318 31.9275C22.8909 32.4986 22.4296 32.9406 21.8488 33.2525C21.268 33.5645 20.6193 33.7205 19.9015 33.7205C19.1926 33.7205 18.5545 33.5645 17.9883 33.2525ZM20.8523 31.8688C21.1495 31.7061 21.3865 31.4624 21.5633 31.137C21.74 30.8115 21.8294 30.4167 21.8294 29.9506C21.8294 29.2564 21.6458 28.7229 21.2777 28.3493C20.9096 27.9757 20.46 27.7889 19.9287 27.7889C19.3975 27.7889 18.9517 27.9757 18.5924 28.3493C18.233 28.7229 18.0543 29.2564 18.0543 29.9506C18.0543 30.6449 18.2291 31.1784 18.5797 31.552C18.9294 31.9256 19.3703 32.1124 19.9025 32.1124C20.2385 32.1124 20.5552 32.0315 20.8523 31.8688Z" fill="#FFB342"/>
<path d="M25.0994 27.967C25.4092 27.3998 25.8395 26.9607 26.3892 26.6487C26.9389 26.3368 27.5672 26.1808 28.2772 26.1808C29.1901 26.1808 29.9457 26.407 30.544 26.8596C31.1422 27.3122 31.5433 27.9468 31.7473 28.7643H29.7398C29.634 28.4475 29.4543 28.2 29.2018 28.02C28.9493 27.8399 28.6365 27.7494 28.2646 27.7494C27.7333 27.7494 27.3118 27.941 27.002 28.3223C26.6912 28.7046 26.5368 29.2477 26.5368 29.9497C26.5368 30.644 26.6922 31.1822 27.002 31.5645C27.3118 31.9468 27.7333 32.1375 28.2646 32.1375C29.0172 32.1375 29.5096 31.8033 29.7398 31.136H31.7473C31.5433 31.9266 31.1403 32.5554 30.5372 33.0205C29.9341 33.4865 29.1814 33.7186 28.2772 33.7186C27.5682 33.7186 26.9389 33.5626 26.3892 33.2506C25.8395 32.9386 25.4102 32.4995 25.0994 31.9324C24.7886 31.3652 24.6342 30.7046 24.6342 29.9487C24.6342 29.1947 24.7896 28.5342 25.0994 27.967Z" fill="#FFB342"/>
<path d="M33.1089 33.3845C32.8914 33.1784 32.7836 32.9213 32.7836 32.6132C32.7836 32.306 32.8924 32.0489 33.1089 31.8418C33.3265 31.6358 33.6033 31.5318 33.9393 31.5318C34.2676 31.5318 34.5376 31.6348 34.7503 31.8418C34.963 32.0489 35.0698 32.305 35.0698 32.6132C35.0698 32.9213 34.9639 33.1774 34.7503 33.3845C34.5376 33.5915 34.2676 33.6945 33.9393 33.6945C33.6023 33.6936 33.3255 33.5905 33.1089 33.3845Z" fill="#FFB342"/>
</svg>
