<svg width="29" height="39" viewBox="0 0 29 39" fill="none" xmlns="http://www.w3.org/2000/svg">
<path d="M22.5794 7.22879H27.2837C27.418 7.22879 27.5262 7.33775 27.5262 7.47135V36.8369C27.5262 36.9713 27.4173 37.0795 27.2837 37.0795H2.25819C2.12385 37.0795 2.01562 36.9705 2.01562 36.8369V7.47135C2.01562 7.33701 2.12459 7.22879 2.25819 7.22879H6.94982M17.5302 5.16141H21.3195C21.5516 5.16141 21.7397 5.3495 21.7397 5.58161V8.79694C21.7397 9.02906 21.5516 9.21714 21.3195 9.21714H8.22238C7.99026 9.21714 7.80218 9.02906 7.80218 8.79694V5.58161C7.80218 5.3495 7.99026 5.16141 8.22238 5.16141H12.0087M12.0086 5.01436C11.9855 4.87703 12.2124 4.20381 12.2124 4.05976C12.2124 2.64615 13.358 1.50049 14.7716 1.50049C16.1852 1.50049 17.3309 2.64615 17.3309 4.05976C17.3309 4.165 17.4548 5.03078 17.4421 5.13228M6.04458 17.0904L7.34325 18.1532L11.3594 14.4326M13.5439 16.736H23.2287M6.04458 23.4092L7.34325 24.472L11.3594 20.7514M13.5439 23.0546H23.2287M6.04458 29.7278L7.34325 30.7907L11.3594 27.07M13.5439 29.3733H23.2287" stroke="#FFB342" stroke-width="2.5" stroke-miterlimit="10" stroke-linecap="round"/>
</svg>
