<svg width="81" height="72" viewBox="0 0 81 72" fill="none" xmlns="http://www.w3.org/2000/svg">
<path d="M56.2105 44.3293H43.9244C43.7867 44.3293 43.6835 44.2261 43.6835 44.0884V25.7452C43.6835 25.6076 43.7867 25.5043 43.9244 25.5043H52.1151M53.1473 19.8255H27.4394C27.3017 19.8255 27.1985 19.7222 27.1985 19.5846V1.24139C27.1985 1.10373 27.3017 1.00049 27.4394 1.00049H76.2742C76.4118 1.00049 76.5151 1.10373 76.5151 1.24139V13.6996M55.763 69.0046H27.6115C27.4739 69.0046 27.3706 68.9014 27.3706 68.7637V50.455C27.3706 50.3173 27.4739 50.2141 27.6115 50.2141H54.6273M66.638 38.9948V49.0784M37.5917 44.3293H1.55926C1.4216 44.3293 1.31836 44.2261 1.31836 44.0884V25.7452C1.31836 25.6076 1.4216 25.5043 1.55926 25.5043H37.5917C37.7294 25.5043 37.8326 25.6076 37.8326 25.7452V44.054C37.8326 44.2261 37.7294 44.3293 37.5917 44.3293ZM66.7751 71.0004C63.196 71.0004 60.3051 68.1095 60.3051 64.5304V50.7988C60.3051 50.3514 60.6493 50.0073 61.0967 50.0073H72.4536C72.901 50.0073 73.2451 50.3514 73.2451 50.7988V64.5304C73.2451 68.0751 70.3199 71.0004 66.7751 71.0004ZM70.4579 11.91C68.6339 7.84906 63.2308 7.98672 61.5444 12.1165L53.6634 31.6986C52.4245 35.4154 55.0056 39.3387 58.6536 39.3387H74.3812C78.1324 39.3387 80.6791 35.2434 79.3025 31.4921L70.4579 11.91Z" stroke="#FFB342" stroke-width="2" stroke-miterlimit="10"/>
</svg>
