<svg width="73" height="72" viewBox="0 0 73 72" fill="none" xmlns="http://www.w3.org/2000/svg">
<path d="M50.5944 54.0806H31.5673M33.064 18.1341C33.064 19.9666 34.5606 21.4631 36.393 21.4631C38.2255 21.4631 39.722 19.9666 39.722 18.1341C39.722 16.3016 38.2255 14.8051 36.393 14.8051V11.0791M40.2107 9.76633L56.7334 19.0508M41.7379 5.03221L60.2457 13.4921M58.9629 22.4711L57.3442 55.883M64.7047 22.7758L66.415 55.8823M30.9261 70.9391H2.24808C1.88158 70.9391 1.57617 70.6337 1.57617 70.2672V23.4477C1.57617 23.0812 1.88158 22.7758 2.24808 22.7758H30.9567C31.3232 22.7758 31.6286 23.0812 31.6286 23.4477V70.2672C31.6286 70.6337 31.3232 70.9391 30.9261 70.9391ZM24.9706 22.7767H8.20358C8.11196 22.7767 8.05088 22.6851 8.05088 22.624V17.4931C8.05088 17.4015 8.11196 17.3404 8.20358 17.3404H24.9706C25.0623 17.3404 25.1233 17.4015 25.1233 17.4931V22.624C25.1233 22.6851 25.0623 22.7767 24.9706 22.7767ZM69.7745 61.1356H53.6183C53.5267 61.1356 53.4656 61.0746 53.4656 60.9829V56.6461C53.4656 56.5545 53.5267 56.4934 53.6183 56.4934H69.7745C69.8661 56.4934 69.9272 56.5545 69.9272 56.6461V60.9829C69.9272 61.044 69.8661 61.1356 69.7745 61.1356ZM71.2709 71.0003H52.0911C51.9995 71.0003 51.9384 70.9392 51.9384 70.8476V61.2882C51.9384 61.1966 51.9995 61.1355 52.0911 61.1355H71.2709C71.3625 61.1355 71.4236 61.1966 71.4236 61.2882V70.8476C71.4236 70.9086 71.3625 71.0003 71.2709 71.0003ZM13.5788 32.5189H7.13468C7.04306 32.5189 6.98198 32.4578 6.98198 32.3662V26.3496C6.98198 26.258 7.04306 26.1969 7.13468 26.1969H13.5788C13.6705 26.1969 13.7316 26.258 13.7316 26.3496V32.3967C13.7316 32.4578 13.6705 32.5189 13.5788 32.5189ZM25.887 32.5189H19.4429C19.3512 32.5189 19.2902 32.4578 19.2902 32.3662V26.3496C19.2902 26.258 19.3512 26.1969 19.4429 26.1969H25.887C25.9787 26.1969 26.0397 26.258 26.0397 26.3496V32.3967C26.0397 32.4578 25.9481 32.5189 25.887 32.5189ZM13.5788 43.9717H7.13468C7.04306 43.9717 6.98198 43.9106 6.98198 43.819V37.7719C6.98198 37.6802 7.04306 37.6192 7.13468 37.6192H13.5788C13.6705 37.6192 13.7316 37.6802 13.7316 37.7719V43.819C13.7316 43.8801 13.6705 43.9717 13.5788 43.9717ZM25.887 43.9717H19.4429C19.3512 43.9717 19.2902 43.9106 19.2902 43.819V37.7719C19.2902 37.6802 19.3512 37.6192 19.4429 37.6192H25.887C25.9787 37.6192 26.0397 37.6802 26.0397 37.7719V43.819C26.0397 43.8801 25.9481 43.9717 25.887 43.9717ZM13.5788 55.4245H7.13468C7.04306 55.4245 6.98198 55.3635 6.98198 55.2718V49.2247C6.98198 49.1331 7.04306 49.072 7.13468 49.072H13.5788C13.6705 49.072 13.7316 49.1331 13.7316 49.2247V55.2718C13.7316 55.3635 13.6705 55.4245 13.5788 55.4245ZM25.887 55.4245H19.4429C19.3512 55.4245 19.2902 55.3635 19.2902 55.2718V49.2247C19.2902 49.1331 19.3512 49.072 19.4429 49.072H25.887C25.9787 49.072 26.0397 49.1331 26.0397 49.2247V55.2718C26.0397 55.3635 25.9481 55.4245 25.887 55.4245ZM47.1128 50.5684H36.0264C35.9347 50.5684 35.8737 50.5073 35.8737 50.4157V40.0317C35.8737 39.9401 35.9347 39.879 36.0264 39.879H47.1128C47.2044 39.879 47.2655 39.9401 47.2655 40.0317V50.4157C47.2655 50.5073 47.2044 50.5684 47.1128 50.5684ZM47.1128 35.8783H36.0264C35.9347 35.8783 35.8737 35.8172 35.8737 35.7256V25.3416C35.8737 25.25 35.9347 25.1889 36.0264 25.1889H47.1128C47.2044 25.1889 47.2655 25.25 47.2655 25.3416V35.7256C47.2655 35.7867 47.2044 35.8783 47.1128 35.8783ZM13.5788 66.908H7.13468C7.04306 66.908 6.98198 66.8469 6.98198 66.7553V60.7081C6.98198 60.6165 7.04306 60.5554 7.13468 60.5554H13.5788C13.6705 60.5554 13.7316 60.6165 13.7316 60.7081V66.7553C13.7316 66.8469 13.6705 66.908 13.5788 66.908ZM25.887 66.908H19.4429C19.3512 66.908 19.2902 66.8469 19.2902 66.7553V60.7081C19.2902 60.6165 19.3512 60.5554 19.4429 60.5554H25.887C25.9787 60.5554 26.0397 60.6165 26.0397 60.7081V66.7553C26.0397 66.8469 25.9481 66.908 25.887 66.908ZM41.6459 6.03976C41.6459 8.82288 39.3897 11.079 36.6066 11.079C33.8235 11.079 31.5673 8.82288 31.5673 6.03976C31.5673 3.25665 33.8235 1.00049 36.6066 1.00049C39.3897 1.00049 41.6459 3.25665 41.6459 6.03976ZM67.1175 18.4397C67.1175 21.2228 64.8613 23.479 62.0782 23.479C59.2951 23.479 57.0389 21.2228 57.0389 18.4397C57.0389 15.6566 59.2951 13.4004 62.0782 13.4004C64.8613 13.4004 67.1175 15.6566 67.1175 18.4397Z" stroke="#FFB342" stroke-width="2" stroke-miterlimit="10" stroke-linecap="round"/>
</svg>
