<svg width="18" height="18" viewBox="0 0 18 18" fill="none" xmlns="http://www.w3.org/2000/svg">
<path d="M12.6268 1.84736C13.6109 1.85019 14.5539 2.22791 15.2498 2.89802C15.9456 3.56813 16.3379 4.47619 16.3408 5.42386V12.5761C16.3379 13.5238 15.9456 14.4318 15.2498 15.1019C14.5539 15.7721 13.6109 16.1498 12.6268 16.1526H5.19944C4.21532 16.1498 3.27234 15.7721 2.57645 15.1019C1.88057 14.4318 1.48832 13.5238 1.48539 12.5761V5.42386C1.48832 4.47619 1.88057 3.56813 2.57645 2.89802C3.27234 2.22791 4.21532 1.85019 5.19944 1.84736H12.6268ZM12.6268 0.416992H5.19944C2.33969 0.416992 0 2.67003 0 5.42386V12.5761C0 15.3299 2.33969 17.583 5.19944 17.583H12.6268C15.4865 17.583 17.8262 15.3299 17.8262 12.5761V5.42386C17.8262 2.67003 15.4865 0.416992 12.6268 0.416992Z" fill="#1C2752"/>
<path d="M13.7414 5.42407C13.521 5.42407 13.3056 5.36115 13.1224 5.24326C12.9392 5.12537 12.7964 4.95781 12.7121 4.76177C12.6277 4.56572 12.6057 4.35 12.6487 4.14189C12.6916 3.93377 12.7978 3.7426 12.9536 3.59256C13.1094 3.44251 13.3079 3.34033 13.524 3.29894C13.7401 3.25754 13.9642 3.27879 14.1677 3.35999C14.3713 3.44119 14.5453 3.5787 14.6678 3.75514C14.7902 3.93157 14.8555 4.139 14.8555 4.35119C14.8558 4.49217 14.8272 4.63182 14.7714 4.76212C14.7155 4.89243 14.6334 5.01082 14.5299 5.11051C14.4264 5.21019 14.3034 5.28921 14.1681 5.34302C14.0328 5.39683 13.8878 5.42437 13.7414 5.42407ZM8.91358 6.13906C9.50123 6.13906 10.0757 6.30686 10.5643 6.62125C11.0529 6.93563 11.4337 7.38248 11.6586 7.90528C11.8835 8.42809 11.9423 9.00336 11.8277 9.55837C11.713 10.1134 11.43 10.6232 11.0145 11.0233C10.599 11.4234 10.0696 11.6959 9.49323 11.8063C8.91688 11.9167 8.31948 11.8601 7.77657 11.6435C7.23366 11.427 6.76963 11.0603 6.44315 10.5897C6.11667 10.1192 5.94242 9.56606 5.94242 9.00019C5.94326 8.24162 6.25656 7.51435 6.81358 6.97796C7.3706 6.44157 8.12584 6.13987 8.91358 6.13906ZM8.91358 4.70869C8.03216 4.70869 7.17053 4.96038 6.43766 5.43194C5.70478 5.90349 5.13357 6.57373 4.79627 7.3579C4.45896 8.14207 4.37071 9.00495 4.54266 9.83742C4.71462 10.6699 5.13907 11.4346 5.76233 12.0347C6.38559 12.6349 7.17967 13.0436 8.04415 13.2092C8.90864 13.3748 9.8047 13.2898 10.619 12.965C11.4334 12.6402 12.1294 12.0901 12.6191 11.3844C13.1088 10.6787 13.3701 9.84897 13.3701 9.00019C13.3701 7.86201 12.9006 6.77045 12.0648 5.96564C11.2291 5.16083 10.0955 4.70869 8.91358 4.70869Z" fill="#1C2752"/>
</svg>
