<svg width="49" height="56" viewBox="0 0 49 56" fill="none" xmlns="http://www.w3.org/2000/svg">
<path d="M44.8572 20.048H41.2978V15.7704C41.2978 7.10732 33.5739 0.0634766 24.0918 0.0634766C14.6098 0.0634766 6.90026 7.10732 6.90026 15.7704V20.048H3.65792C1.78457 20.048 0.271484 21.4784 0.271484 23.2191V52.7654C0.271484 54.5196 1.79898 55.9365 3.65792 55.9365H44.8428C46.7161 55.9365 48.2292 54.5061 48.2292 52.7654V23.2191C48.2436 21.4649 46.7306 20.048 44.8572 20.048ZM27.6512 41.9837C27.6512 43.738 26.1237 45.1548 24.2648 45.1548C22.3914 45.1548 20.8783 43.7245 20.8783 41.9837V34.0008C20.8783 32.2466 22.4058 30.8297 24.2648 30.8297C26.1381 30.8297 27.6512 32.26 27.6512 34.0008V41.9837ZM34.5105 20.048H13.6731V15.7704C13.6731 10.6157 18.3421 6.41913 24.0918 6.41913C29.8416 6.41913 34.5105 10.6157 34.5105 15.7704V20.048Z" fill="#FFB342"/>
</svg>
