<svg width="45" height="50" viewBox="0 0 45 50" fill="none" xmlns="http://www.w3.org/2000/svg">
<path d="M39.3495 49.9173H5.63607C5.17483 49.9173 4.79928 49.5418 4.79928 49.0805V42.5027H6.24369V48.4729H38.7409V42.9861H40.1853V49.0815C40.1863 49.5418 39.8107 49.9173 39.3495 49.9173Z" fill="#FFB342"/>
<path d="M38.7419 22.8723V9.80423H36.6831C33.827 9.80423 31.5035 7.48067 31.5035 4.62459V2.26154H6.24465V22.8723H4.80024V1.65393C4.80024 1.19268 5.17579 0.817139 5.63704 0.817139H31.9406C32.4962 0.817139 32.9488 1.26972 32.9488 1.82533V4.62556C32.9488 6.68528 34.6243 8.36079 36.6841 8.36079H39.179C39.7346 8.36079 40.1872 8.81337 40.1872 9.36899V22.8723H38.7419Z" fill="#FFB342"/>
<path d="M44.1497 43.403H0.836792C0.375546 43.403 0 43.0275 0 42.5662V23.139C0 22.6777 0.375546 22.3022 0.836792 22.3022H44.1497C44.611 22.3022 44.9865 22.6777 44.9865 23.139V42.5672C44.9865 43.0285 44.611 43.403 44.1497 43.403ZM1.44441 41.9586H43.5421V23.7466H1.44441V41.9586Z" fill="#FFB342"/>
<path d="M26.6647 10.8327H10.8937C10.4951 10.8327 10.1715 10.5091 10.1715 10.1104C10.1715 9.71179 10.4951 9.38824 10.8937 9.38824H26.6647C27.0634 9.38824 27.3869 9.71179 27.3869 10.1104C27.3869 10.5091 27.0634 10.8327 26.6647 10.8327Z" fill="#FFB342"/>
<path d="M33.179 14.9473H10.8937C10.4951 14.9473 10.1715 14.6237 10.1715 14.2251C10.1715 13.8264 10.4951 13.5029 10.8937 13.5029H33.179C33.5776 13.5029 33.9012 13.8264 33.9012 14.2251C33.9012 14.6237 33.5776 14.9473 33.179 14.9473Z" fill="#FFB342"/>
<path d="M33.179 18.7181H10.8937C10.4951 18.7181 10.1715 18.3946 10.1715 17.9959C10.1715 17.5973 10.4951 17.2737 10.8937 17.2737H33.179C33.5776 17.2737 33.9012 17.5973 33.9012 17.9959C33.9012 18.3946 33.5776 18.7181 33.179 18.7181Z" fill="#FFB342"/>
<path d="M39.4641 9.80423C39.2744 9.80423 39.0847 9.73009 38.9431 9.58179L31.7047 2.03911C31.4283 1.75119 31.438 1.29379 31.7259 1.01839C32.0138 0.74203 32.4712 0.751659 32.7466 1.03958L39.985 8.58227C40.2614 8.87018 40.2517 9.32758 39.9638 9.60298C39.8242 9.73779 39.6441 9.80423 39.4641 9.80423Z" fill="#FFB342"/>
<path d="M16.3054 32.3379C16.0762 32.7616 15.718 33.1025 15.2289 33.3625C14.7406 33.6215 14.1244 33.7515 13.381 33.7515H11.8644V37.2258H10.0492V28.1761H13.381C14.081 28.1761 14.6771 28.2974 15.1701 28.5391C15.6631 28.7808 16.0319 29.114 16.2785 29.5377C16.525 29.9614 16.6482 30.4409 16.6482 30.9773C16.6482 31.4607 16.5336 31.9142 16.3054 32.3379ZM14.419 31.9422C14.6607 31.713 14.7821 31.3914 14.7821 30.9763C14.7821 30.0943 14.289 29.6542 13.3039 29.6542H11.8644V32.2859H13.3039C13.8047 32.2859 14.1764 32.1713 14.419 31.9422Z" fill="#FFB342"/>
<path d="M24.2525 28.7337C24.9738 29.1053 25.5313 29.635 25.9252 30.3215C26.318 31.0091 26.5154 31.8064 26.5154 32.7135C26.5154 33.6206 26.319 34.414 25.9252 35.0929C25.5313 35.7718 24.9738 36.2966 24.2525 36.6683C23.5303 37.04 22.6945 37.2258 21.7441 37.2258H18.5808V28.1761H21.7441C22.6945 28.1761 23.5313 28.362 24.2525 28.7337ZM23.8828 34.9051C24.4018 34.3861 24.6608 33.6562 24.6608 32.7144C24.6608 31.7727 24.4018 31.0351 23.8828 30.5035C23.3637 29.972 22.629 29.7062 21.6786 29.7062H20.395V35.6832H21.6786C22.63 35.6832 23.3647 35.4232 23.8828 34.9051Z" fill="#FFB342"/>
<path d="M34.113 28.1761V29.6407H30.3402V31.9614H33.2319V33.401H30.3402V37.2258H28.5251V28.1761H34.113Z" fill="#FFB342"/>
</svg>
