<svg width="49" height="39" viewBox="0 0 49 39" fill="none" xmlns="http://www.w3.org/2000/svg">
<path d="M2 37.3349H41.1605L45.9806 27.7827M41.4671 27.3666L46.8967 27.214C46.9598 27.214 47.0109 27.2711 47.0109 27.3416V33.4959M12.1988 37.3349H8.89946C8.74934 37.3349 8.62642 37.1988 8.62642 37.0299V22.5751C8.62642 22.4074 8.74826 22.27 8.89946 22.27H12.1988C12.3489 22.27 12.4718 22.4061 12.4718 22.5751V37.0311C12.4718 37.1988 12.35 37.3349 12.1988 37.3349ZM20.2322 37.3349H16.9329C16.7828 37.3349 16.6599 37.1988 16.6599 37.0299V1.80553C16.6599 1.63782 16.7817 1.50049 16.9329 1.50049H20.2322C20.3823 1.50049 20.5053 1.6366 20.5053 1.80553V37.0311C20.5042 37.1988 20.3823 37.3349 20.2322 37.3349ZM28.0644 37.3981H24.7651C24.615 37.3981 24.4921 37.262 24.4921 37.0931V13.6317C24.4921 13.4639 24.6139 13.3266 24.7651 13.3266H28.0644C28.2145 13.3266 28.3375 13.4627 28.3375 13.6317V37.0931C28.3364 37.262 28.2145 37.3981 28.0644 37.3981ZM35.6954 37.3349H32.3961C32.2459 37.3349 32.123 37.1988 32.123 37.0299V5.90718C32.123 5.73947 32.2449 5.60214 32.3961 5.60214H35.6954C35.8455 5.60214 35.9684 5.73825 35.9684 5.90718V37.0299C35.9684 37.1988 35.8466 37.3349 35.6954 37.3349Z" stroke="#FFB342" stroke-width="2.5" stroke-miterlimit="10" stroke-linecap="round"/>
</svg>
