<svg width="65" height="73" viewBox="0 0 65 73" fill="none" xmlns="http://www.w3.org/2000/svg">
<path d="M28.0985 25.6292V25.8431C31.1859 23.1532 33.1727 19.2406 33.1727 14.8083C33.1727 9.30612 30.116 4.53759 25.6226 2.03106V16.5506C25.6226 16.8563 25.378 17.1008 25.0724 17.1008H11.8672C11.5615 17.1008 11.317 16.8563 11.317 16.5506V2.00049C6.82356 4.50702 3.76681 9.27556 3.76681 14.7777C3.76681 19.21 5.7537 23.1226 8.84101 25.8126L8.8411 32.4152M28.0985 29.8475V25.8126M9.14667 63.4721C9.48291 68.4851 13.365 72.0004 18.4698 72.0004C23.7885 72.0004 28.0985 67.6904 28.0985 62.3716V48.9525M46.5319 63.5269L28.1902 63.5632M31.9805 37.3367L28.0679 40.8214C26.5395 42.1969 24.1858 42.0441 22.8409 40.5157C21.4653 38.9873 21.6182 36.6336 23.1465 35.2886L30.1771 29.0529C31.3081 28.0441 33.0504 28.0747 34.1508 29.1446L47.2949 41.7995M13.7011 40.8822H4.83655C2.88023 40.8822 1.32129 39.2927 1.32129 37.3669V36.8778C1.32129 34.9215 2.9108 33.3626 4.83655 33.3626H13.7011C15.6575 33.3626 17.2164 34.9521 17.2164 36.8778V37.3669C17.2164 39.2927 15.6575 40.8822 13.7011 40.8822ZM13.7011 48.4326H4.83655C2.88023 48.4326 1.32129 46.8431 1.32129 44.9173V44.4283C1.32129 42.4719 2.9108 40.913 4.83655 40.913H13.7011C15.6575 40.913 17.2164 42.5025 17.2164 44.4283V44.9173C17.2164 46.8737 15.6575 48.4326 13.7011 48.4326ZM13.7011 56.013H4.83655C2.88023 56.013 1.32129 54.4235 1.32129 52.4977V52.0086C1.32129 50.0523 2.9108 48.4934 4.83655 48.4934H13.7011C15.6575 48.4934 17.2164 50.0829 17.2164 52.0086V52.4977C17.2164 54.4235 15.6575 56.013 13.7011 56.013ZM13.7011 63.5634H4.83655C2.88023 63.5634 1.32129 61.9739 1.32129 60.0481V59.559C1.32129 57.6027 2.9108 56.0438 4.83655 56.0438H13.7011C15.6575 56.0438 17.2164 57.6333 17.2164 59.559V60.0481C17.2164 61.9739 15.6575 63.5634 13.7011 63.5634ZM63.1288 67.9044H47.8145C47.5088 67.9044 47.2643 67.6599 47.2643 67.3542V38.04C47.2643 37.7343 47.5088 37.4897 47.8145 37.4897H63.1288C63.4345 37.4897 63.679 37.7343 63.679 38.04V67.3542C63.679 67.6293 63.4345 67.9044 63.1288 67.9044Z" stroke="#FFB342" stroke-width="2" stroke-miterlimit="10" stroke-linecap="round"/>
</svg>
