<svg width="59" height="72" viewBox="0 0 59 72" fill="none" xmlns="http://www.w3.org/2000/svg">
<path d="M19.0058 18.8956C18.4535 18.8956 18.0058 19.3433 18.0058 19.8956C18.0058 20.4479 18.4535 20.8956 19.0058 20.8956V18.8956ZM40.0239 20.8956C40.5762 20.8956 41.0239 20.4479 41.0239 19.8956C41.0239 19.3433 40.5762 18.8956 40.0239 18.8956V20.8956ZM13.2431 64.9956C12.6908 64.9956 12.2431 65.4434 12.2431 65.9956C12.2431 66.5479 12.6908 66.9956 13.2431 66.9956V64.9956ZM45.7864 66.9956C46.3386 66.9956 46.7864 66.5479 46.7864 65.9956C46.7864 65.4434 46.3386 64.9956 45.7864 64.9956V66.9956ZM15.7603 20.6235H16.7603V19.6235H15.7603V20.6235ZM43.2992 20.6235V19.6235H42.2992V20.6235H43.2992ZM1.56641 71.0005H0.566406V72.0005H1.56641V71.0005ZM57.4328 71.0005V72.0005H58.4328V71.0005H57.4328ZM19.0177 44.7727C18.6869 44.3304 18.0603 44.24 17.618 44.5708C17.1757 44.9015 17.0853 45.5282 17.4161 45.9705L19.0177 44.7727ZM28.2133 60.4072C28.5441 60.8495 29.1707 60.9399 29.613 60.6091C30.0553 60.2783 30.1457 59.6516 29.8149 59.2094L28.2133 60.4072ZM29.0625 59.2094C28.7317 59.6516 28.8221 60.2783 29.2644 60.6091C29.7067 60.9399 30.3333 60.8495 30.6641 60.4072L29.0625 59.2094ZM41.4613 45.9705C41.7921 45.5282 41.7017 44.9015 41.2594 44.5708C40.8172 44.24 40.1905 44.3304 39.8597 44.7727L41.4613 45.9705ZM28.4089 70.7573C28.4089 71.3096 28.8566 71.7573 29.4089 71.7573C29.9612 71.7573 30.4089 71.3096 30.4089 70.7573H28.4089ZM30.4089 59.0502C30.4089 58.4979 29.9612 58.0502 29.4089 58.0502C28.8566 58.0502 28.4089 58.4979 28.4089 59.0502H30.4089ZM19.0058 20.8956H40.0239V18.8956H19.0058V20.8956ZM13.2431 66.9956H45.7864V64.9956H13.2431V66.9956ZM28.164 9.03773V2.48662H26.164V9.03773H28.164ZM28.164 2.48662C28.164 2.30967 28.2267 2.17099 28.2979 2.08814C28.3681 2.00633 28.4223 2.00049 28.4379 2.00049V0.000488281C27.0509 0.000488281 26.164 1.26328 26.164 2.48662H28.164ZM28.4379 2.00049H30.5306V0.000488281H28.4379V2.00049ZM30.5306 2.00049C30.5461 2.00049 30.6003 2.00633 30.6706 2.08814C30.7418 2.17099 30.8044 2.30967 30.8044 2.48662H32.8044C32.8044 1.26327 31.9175 0.000488281 30.5306 0.000488281V2.00049ZM30.8044 2.48662V9.03773H32.8044V2.48662H30.8044ZM31.7515 3.44577C39.1842 4.52793 44.8773 10.9073 44.8773 18.6217H46.8773C46.8773 9.89758 40.4388 2.68951 32.0396 1.46664L31.7515 3.44577ZM44.8773 18.6217C44.8773 19.1618 44.8489 19.6709 44.7924 20.1793L46.7802 20.4002C46.845 19.8168 46.8773 19.234 46.8773 18.6217H44.8773ZM14.2622 20.2931C14.1805 19.7484 14.152 19.2239 14.152 18.652H12.152C12.152 19.2933 12.1841 19.9212 12.2844 20.5898L14.2622 20.2931ZM14.152 18.652C14.152 10.9088 19.874 4.52814 27.3081 3.44577L27.02 1.46664C18.6223 2.68929 12.152 9.8961 12.152 18.652H14.152ZM9.78546 21.6235H15.7603V19.6235H9.78546V21.6235ZM14.7603 20.6235C14.7603 23.2381 16.8761 25.354 19.4908 25.354V23.354C17.9807 23.354 16.7603 22.1336 16.7603 20.6235H14.7603ZM19.4908 25.354H39.5687V23.354H19.4908V25.354ZM39.5687 25.354C42.1834 25.354 44.2992 23.2381 44.2992 20.6235H42.2992C42.2992 22.1336 41.0788 23.354 39.5687 23.354V25.354ZM43.2992 21.6235H49.3044V19.6235H43.2992V21.6235ZM41.3288 23.4747V29.9045H43.3288V23.4747H41.3288ZM41.3288 29.9045C41.3288 36.4204 36.0427 41.7337 29.4995 41.7337V43.7337C37.1504 43.7337 43.3288 37.5219 43.3288 29.9045H41.3288ZM29.4995 41.7337C22.9835 41.7337 17.6703 36.4477 17.6703 29.9045H15.6703C15.6703 37.5553 21.8821 43.7337 29.4995 43.7337V41.7337ZM17.6703 29.9045V23.232H15.6703V29.9045H17.6703ZM26.1019 41.8839V41.0651H24.1019V41.8839H26.1019ZM26.1019 41.0651C26.1019 40.6771 26.4124 40.3666 26.8003 40.3666V38.3666C25.3079 38.3666 24.1019 39.5726 24.1019 41.0651H26.1019ZM26.8003 40.3666H32.2596V38.3666H26.8003V40.3666ZM32.2596 40.3666C32.6475 40.3666 32.958 40.6771 32.958 41.0651H34.958C34.958 39.5726 33.7521 38.3666 32.2596 38.3666V40.3666ZM32.958 41.0651V42.0356H34.958V41.0651H32.958ZM21.3419 40.55V43.4313H23.3419V40.55H21.3419ZM21.3419 43.4313C21.3419 43.9708 20.9101 44.4027 20.3705 44.4027V46.4027C22.0146 46.4027 23.3419 45.0754 23.3419 43.4313H21.3419ZM20.3705 44.4027H18.2171V46.4027H20.3705V44.4027ZM18.2171 44.4027C8.4751 44.4027 0.566406 52.3114 0.566406 62.0534H2.56641C2.56641 53.4159 9.57967 46.4027 18.2171 46.4027V44.4027ZM0.566406 62.0534V71.0005H2.56641V62.0534H0.566406ZM1.56641 72.0005H57.4328V70.0005H1.56641V72.0005ZM58.4328 71.0005V62.0534H56.4328V71.0005H58.4328ZM58.4328 62.0534C58.4328 52.3114 50.5241 44.4027 40.7821 44.4027V46.4027C49.4195 46.4027 56.4328 53.4159 56.4328 62.0534H58.4328ZM40.7821 44.4027H38.659V46.4027H40.7821V44.4027ZM38.659 44.4027C38.1194 44.4027 37.6876 43.9708 37.6876 43.4313H35.6876C35.6876 45.0754 37.0149 46.4027 38.659 46.4027V44.4027ZM37.6876 43.4313V41.0959H35.6876V43.4313H37.6876ZM44.9685 46.07V70.667H46.9685V46.07H44.9685ZM12.3037 46.07V70.667H14.3037V46.07H12.3037ZM17.4161 45.9705L28.2133 60.4072L29.8149 59.2094L19.0177 44.7727L17.4161 45.9705ZM30.6641 60.4072L41.4613 45.9705L39.8597 44.7727L29.0625 59.2094L30.6641 60.4072ZM30.4089 70.7573V59.0502H28.4089V70.7573H30.4089Z" fill="#FFB342"/>
</svg>
